<?xml version="1.0" standalone="no"?><!DOCTYPE svg PUBLIC "-//W3C//DTD SVG 1.1//EN" "http://www.w3.org/Graphics/SVG/1.1/DTD/svg11.dtd"><svg t="1711673908964" class="icon" viewBox="0 0 1024 1024" version="1.1" xmlns="http://www.w3.org/2000/svg" p-id="2576" xmlns:xlink="http://www.w3.org/1999/xlink" width="200" height="200"><path d="M752 848a16 16 0 0 1 16 16v64a16 16 0 0 1-16 16H288a16 16 0 0 1-16-16v-64a16 16 0 0 1 16-16h464zM896 96a64 64 0 0 1 63.936 60.8L960 160V704a64 64 0 0 1-60.8 63.936L896 768H144a64 64 0 0 1-63.936-60.8L80 704V160a64 64 0 0 1 60.8-63.936l3.2-0.064H896zM864 192H176v480H864V192zM448 320v240H352V320H448z m240 0v240h-96V320h96z" p-id="2577" fill="#8a8a8a"></path></svg>