<svg t="1711597294660" class="icon" viewBox="0 0 1039 1024" version="1.1" xmlns="http://www.w3.org/2000/svg" p-id="3064" width="200" height="200"><path d="M887.212614 360.983541c0-19.847024-16.087397-35.936467-35.935444-35.936467-19.84293 0-35.931351 16.08535-35.933397 35.928281l-0.00307 0 0 551.302121c0 13.213953-10.747785 23.956621-23.956621 23.956621L232.061286 936.234097c-13.20986 0-23.957645-10.742668-23.957645-23.956621L208.103642 361.215832c0-0.071631 0.010233-0.138146 0.010233-0.209778 0-19.846-16.089443-35.935444-35.936467-35.935444-19.835767 0-35.917024 16.075117-35.935444 35.905768l-0.011256 0 0 551.302121c0 52.842509 42.989093 95.828532 95.829556 95.828532l559.321772 0c52.839439 0 95.828532-42.987047 95.828532-95.828532L887.210567 361.02038C887.212614 361.005031 887.212614 360.995821 887.212614 360.983541z" p-id="3065" fill="#707070" ></path><path d="M409.856645 838.332347c-19.847024 0-35.936467-16.089443-35.936467-35.935444L373.920178 360.975355c0-19.846 16.089443-35.936467 35.936467-35.936467 19.847024 0 35.936467 16.090467 35.936467 35.936467l0 441.420525C445.793112 822.242903 429.702646 838.332347 409.856645 838.332347z" p-id="3066" fill="#707070"></path><path d="M613.588723 838.332347c-19.847024 0-35.936467-16.089443-35.936467-35.935444L577.652256 360.975355c0-19.846 16.090467-35.936467 35.936467-35.936467s35.935444 16.090467 35.935444 35.936467l0 441.420525C649.524167 822.242903 633.434723 838.332347 613.588723 838.332347z" p-id="3067" fill="#707070"></path><path d="M987.097532 155.264203 819.301921 155.264203 819.301921 115.272373c0-52.840462-42.990117-95.829556-95.829556-95.829556L299.974026 19.442818c-52.841485 0-95.829556 42.989093-95.829556 95.829556l0 39.99183L36.347836 155.264203c-19.847024 0-35.936467 16.089443-35.936467 35.936467 0 19.846 16.089443 35.935444 35.936467 35.935444l950.749696 0c19.848047 0 35.936467-16.090467 35.936467-35.935444C1023.033999 171.353646 1006.944556 155.264203 987.097532 155.264203zM276.016381 115.272373c0-13.208836 10.746762-23.957645 23.957645-23.957645l423.49834 0c13.208836 0 23.957645 10.747785 23.957645 23.957645l0 39.99183L276.016381 155.264203 276.016381 115.272373z" p-id="3068" fill="#707070"></path></svg>