<?xml version="1.0" standalone="no"?><!DOCTYPE svg PUBLIC "-//W3C//DTD SVG 1.1//EN" "http://www.w3.org/Graphics/SVG/1.1/DTD/svg11.dtd"><svg t="1711673529534" class="icon" viewBox="0 0 1024 1024" version="1.1" xmlns="http://www.w3.org/2000/svg" p-id="2322" xmlns:xlink="http://www.w3.org/1999/xlink" width="200" height="200"><path d="M921.563598 0H102.395955a102.395955 102.395955 0 0 0-102.395955 102.395955v665.57371a102.395955 102.395955 0 0 0 102.395955 102.395956h234.998718l138.746519 138.746519a51.197978 51.197978 0 0 0 72.189149 0l138.23454-138.746519H921.563598a102.395955 102.395955 0 0 0 102.395956-102.395956V102.395955a102.395955 102.395955 0 0 0-102.395956-102.395955z m0 767.969665h-255.989888a51.197978 51.197978 0 0 0-36.350564 14.847414L511.979777 900.572427l-117.243369-117.755348A51.197978 51.197978 0 0 0 358.385844 767.969665H102.395955V102.395955h819.167643z" p-id="2323" fill="#8a8a8a"></path><path d="M255.989888 358.385844h511.979777a51.197978 51.197978 0 0 0 0-102.395956H255.989888a51.197978 51.197978 0 0 0 0 102.395956zM255.989888 563.177754h307.187866a51.197978 51.197978 0 0 0 0-102.395955H255.989888a51.197978 51.197978 0 0 0 0 102.395955z" p-id="2324" fill="#8a8a8a"></path></svg>