<svg t="1711597152538" viewBox="0 0 1025 1024" version="1.1" xmlns="http://www.w3.org/2000/svg" p-id="2857" width="200" height="200" > <path d="M88.604692 653.05608 716.4014 25.749546c34.4886-34.484498 78.86478-34.178908 113.04779 0.002051l169.577838 169.444526c34.180959 34.18301 34.486549 78.479203 0 112.96165L371.23237 935.464308 58.585089 1021.938074c-43.367117 9.243585-65.765429-13.119861-56.525946-56.480825L88.604692 653.05608M151.143993 703.525601 87.349517 936.715381l233.370262-63.745253L151.143993 703.525601M914.239134 279.914285c29.307927-29.067967 27.521558-28.583945 0.002051-56.480825l-113.051892-112.96165c-26.797577-28.569588-29.476104-28.807497-56.525946 0l-113.051892 112.96165 169.577838 169.444526L914.239134 279.914285zM377.247776 816.489303l367.415572-367.130491-169.575787-169.442476L207.669938 647.044776C224.104117 663.48921 319.21644 758.472324 377.247776 816.489303z" p-id="2858" fill="#8a8a8a"></path></svg>