<?xml version="1.0" standalone="no"?><!DOCTYPE svg PUBLIC "-//W3C//DTD SVG 1.1//EN" "http://www.w3.org/Graphics/SVG/1.1/DTD/svg11.dtd"><svg t="1711674246744" class="icon" viewBox="0 0 1024 1024" version="1.1" xmlns="http://www.w3.org/2000/svg" p-id="2991" xmlns:xlink="http://www.w3.org/1999/xlink" width="200" height="200"><path d="M957.44 716.8c-22.528 0-40.96 18.432-40.96 40.96v92.16c0 33.792-27.648 61.44-61.44 61.44H174.08c-33.792 0-61.44-27.648-61.44-61.44V168.96c0-33.792 27.648-61.44 61.44-61.44h680.96c33.792 0 61.44 27.648 61.44 61.44v40.96c0 22.528 18.432 40.96 40.96 40.96s40.96-18.432 40.96-40.96v-40.96c0-78.848-64.512-143.36-143.36-143.36H174.08C95.232 25.6 30.72 90.112 30.72 168.96v680.96c0 78.848 64.512 143.36 143.36 143.36h680.96c78.848 0 143.36-64.512 143.36-143.36v-92.16c0-22.528-18.432-40.96-40.96-40.96z" fill="#8a8a8a" p-id="2992"></path><path d="M807.936 633.344c8.192 8.192 18.432 11.776 29.184 11.776s20.992-4.096 29.184-11.776l120.32-120.32 0.512-0.512 2.56-2.56c0.512-0.512 1.024-1.024 1.024-1.536 0.512-0.512 1.024-1.024 1.024-1.536 0.512-0.512 1.024-1.024 1.024-2.048 0.512-0.512 0.512-1.024 1.024-1.536 0.512-0.512 0.512-1.536 1.024-2.048 0.512-0.512 0.512-1.024 1.024-1.536 0.512-0.512 0.512-1.536 0.512-2.048s0.512-1.024 0.512-2.048c0-0.512 0.512-1.536 0.512-2.048s0.512-1.024 0.512-2.048 0-1.536 0.512-2.56v-1.536c0.512-2.56 0.512-5.632 0-8.192v-1.536c0-1.024 0-1.536-0.512-2.56 0-0.512-0.512-1.024-0.512-2.048 0-0.512-0.512-1.536-0.512-2.048s-0.512-1.024-0.512-2.048c0-0.512-0.512-1.536-0.512-2.048s-0.512-1.024-1.024-1.536c-0.512-0.512-0.512-1.536-1.024-2.048-0.512-0.512-0.512-1.024-1.024-1.536-0.512-0.512-0.512-1.024-1.024-2.048-0.512-0.512-1.024-1.024-1.024-1.536-0.512-0.512-0.512-1.024-1.024-1.536-0.512-1.024-1.536-2.048-2.56-2.56l-0.512-0.512-120.32-120.32c-15.872-15.872-41.984-15.872-57.856 0-15.872 15.872-15.872 41.984 0 57.856l50.176 50.176h-344.064c-22.528 0-40.96 18.432-40.96 40.96s18.432 40.96 40.96 40.96h344.064l-50.176 50.176c-16.384 17.92-16.384 43.52-0.512 59.904z" fill="#8a8a8a" p-id="2993"></path></svg>