<svg t="1712254771965" class="icon" viewBox="0 0 1024 1024" version="1.1" xmlns="http://www.w3.org/2000/svg" p-id="1778" width="200" height="200"><path d="M208.0768 573.3376m-9.1136 0a9.1136 9.1136 0 1 0 18.2272 0 9.1136 9.1136 0 1 0-18.2272 0Z" fill="#FFFFFF" p-id="1779"></path><path d="M812.7488 318.6688m-6.9632 0a6.9632 6.9632 0 1 0 13.9264 0 6.9632 6.9632 0 1 0-13.9264 0Z" fill="#FFFFFF" p-id="1780"></path><path d="M785.8176 123.6992m-9.1136 0a9.1136 9.1136 0 1 0 18.2272 0 9.1136 9.1136 0 1 0-18.2272 0Z" fill="#F1BC19" p-id="1781"></path><path d="M213.0944 651.8784m-9.1136 0a9.1136 9.1136 0 1 0 18.2272 0 9.1136 9.1136 0 1 0-18.2272 0Z" fill="#F1BC19" p-id="1782"></path><path d="M508.2112 505.0368m-383.488 0a383.488 383.488 0 1 0 766.976 0 383.488 383.488 0 1 0-766.976 0Z" fill="#C0E5E4" p-id="1783"></path><path d="M841.5232 145.8176m-41.0624 0a41.0624 41.0624 0 1 0 82.1248 0 41.0624 41.0624 0 1 0-82.1248 0Z" fill="#F1BC19" p-id="1784"></path><path d="M882.5856 238.6944m-19.2512 0a19.2512 19.2512 0 1 0 38.5024 0 19.2512 19.2512 0 1 0-38.5024 0Z" fill="#77CBD2" p-id="1785"></path><path d="M790.528 775.4752m-19.2512 0a19.2512 19.2512 0 1 0 38.5024 0 19.2512 19.2512 0 1 0-38.5024 0Z" fill="#FBCD59" p-id="1786"></path><path d="M143.7696 642.8672m-41.0624 0a41.0624 41.0624 0 1 0 82.1248 0 41.0624 41.0624 0 1 0-82.1248 0Z" fill="#FBCD59" p-id="1787"></path><path d="M248.6272 889.9584m-19.2512 0a19.2512 19.2512 0 1 0 38.5024 0 19.2512 19.2512 0 1 0-38.5024 0Z" fill="#77CBD2" p-id="1788"></path><path d="M776.704 303.104m-18.432 0a18.432 18.432 0 1 0 36.864 0 18.432 18.432 0 1 0-36.864 0Z" fill="#FFFFFF" p-id="1789"></path><path d="M182.0672 518.8608m-26.0096 0a26.0096 26.0096 0 1 0 52.0192 0 26.0096 26.0096 0 1 0-52.0192 0Z" fill="#FFFFFF" p-id="1790"></path><path d="M697.5488 722.2272c-4.096-22.016-13.1072-34.9184-34.2016-40.96l-3.584-1.2288-5.9392-2.4576c-12.8-5.4272-88.8832-33.4848-88.8832-33.4848a19.1488 19.1488 0 0 1-12.6976-11.0592 88.6784 88.6784 0 0 1-2.3552-29.7984 480.256 480.256 0 0 1-51.2 14.5408c-19.456 1.8432-61.44-23.2448-61.44-23.2448s-1.024 30.72-2.3552 37.9904a17.1008 17.1008 0 0 1-13.1072 11.5712L348.16 670.3104a83.0464 83.0464 0 0 0-22.6304 9.3184 77.0048 77.0048 0 0 0-32.3584 42.5984s-4.8128 33.8944-4.608 35.1232c0 4.8128-0.9216 10.24-1.3312 15.4624 79.4624 53.8624 143.36 68.9152 252.8256 64.1024 49.8688-2.1504 123.904-26.7264 162.816-46.2848-1.7408-43.1104-5.3248-68.4032-5.3248-68.4032z" fill="#DBA179" p-id="1791"></path><path d="M663.3472 681.3696l-3.584-1.2288-5.9392-2.4576c-7.8848-3.3792-40.0384-15.36-63.3856-23.9616h-1.024C563.2 666.624 526.9504 686.08 493.2608 686.08s-67.3792-17.92-96.0512-32.9728l-3.2768 0.8192L348.16 670.72a83.0464 83.0464 0 0 0-22.6304 9.3184 77.312 77.312 0 0 0-32.3584 42.5984s-4.8128 33.8944-4.608 35.1232c0 4.8128-0.9216 55.808-1.3312 61.44 79.4624 53.8624 143.36 68.9152 252.8256 64.1024 49.8688-2.1504 123.904-26.7264 162.816-46.2848-2.1504-43.3152-5.7344-114.176-5.7344-114.176-3.6864-22.2208-12.6976-35.1232-33.792-41.472z" fill="#77CBD2" p-id="1792"></path><path d="M618.7008 450.56h-3.6864c-10.24-0.512-9.1136 3.2768-8.6016-2.8672 0.8192-10.8544-4.4032-54.6816-4.4032-56.9344 0-45.568-47.616-82.8416-107.1104-84.8896h-2.4576c-59.4944 2.048-107.1104 39.3216-107.1104 84.8896 0 2.2528-1.536 46.2848-0.7168 57.1392 0 6.144-2.4576 2.1504-12.288 2.6624H368.64a22.7328 22.7328 0 0 0-21.504 16.1792c1.3312 0.8192 6.2464 38.1952 14.2336 52.9408 4.5056 8.192 11.4688 9.3184 18.6368 14.6432a15.9744 15.9744 0 0 1 5.8368 10.24 92.16 92.16 0 0 0 27.3408 41.984c6.0416 5.8368 46.08 48.5376 80.4864 46.2848s74.4448-40.96 80.4864-46.2848a92.16 92.16 0 0 0 27.3408-41.984 15.9744 15.9744 0 0 1 5.8368-10.24c7.168-5.3248 14.1312-6.4512 18.5344-14.6432 7.9872-14.7456 12.9024-52.1216 14.2336-52.9408A22.6304 22.6304 0 0 0 618.7008 450.56z" fill="#EDBC94" p-id="1793"></path><path d="M494.2848 522.8544a24.1664 24.1664 0 0 0 18.1248-8.192 1.2288 1.2288 0 0 0 0-1.7408 1.2288 1.2288 0 0 0-1.7408 0 23.7568 23.7568 0 0 1-32.5632 0 1.536 1.536 0 0 0-0.9216 0 1.1264 1.1264 0 0 0-0.8192 0 1.2288 1.2288 0 0 0 0 1.7408 23.9616 23.9616 0 0 0 17.92 8.192zM471.9616 428.3392l4.4032-8.4992a115.2 115.2 0 0 0-58.1632 1.8432l5.632 8.2944a91.2384 91.2384 0 0 1 48.128-1.6384zM565.8624 428.3392l4.5056-8.4992a115.6096 115.6096 0 0 0-58.2656 1.8432l5.632 8.2944a91.2384 91.2384 0 0 1 48.128-1.6384zM444.928 440.32a12.4928 12.4928 0 0 0-10.752 7.4752 5.8368 5.8368 0 0 1 1.8432 0 7.4752 7.4752 0 0 1 0 14.9504 5.9392 5.9392 0 0 1-3.2768-1.024 13.6192 13.6192 0 0 0 12.1856 11.6736 16.896 16.896 0 0 0 0-32.768zM542.72 440.32a11.776 11.776 0 0 0-9.6256 5.632 6.0416 6.0416 0 0 1 2.3552-0.512 7.4752 7.4752 0 0 1 0 14.9504 6.656 6.656 0 0 1-5.5296-3.2768A13.2096 13.2096 0 1 0 542.72 440.32zM548.4544 541.9008a1.3312 1.3312 0 0 0 0-1.7408 1.2288 1.2288 0 0 0-1.7408 0 86.7328 86.7328 0 0 1-52.6336 14.4384 86.7328 86.7328 0 0 1-52.6336-14.4384 1.1264 1.1264 0 0 0-0.8192 0 1.2288 1.2288 0 0 0-0.9216 0 1.3312 1.3312 0 0 0 0 1.7408 94.8224 94.8224 0 0 0 108.3392 0zM508.6208 595.8656c0.6144 0 1.1264-0.8192 1.1264-1.6384s-0.512-1.6384-1.1264-1.6384h-26.4192c-0.6144 0-1.1264 0.7168-1.1264 1.6384s0.512 1.6384 1.1264 1.6384z" fill="#512C2B" p-id="1794"></path><path d="M621.2608 314.88c-0.7168-5.7344-6.9632-4.9152-13.1072-4.5056-19.1488 1.1264-23.8592-5.0176-62.976-26.8288a97.8944 97.8944 0 0 0-105.472 5.632C317.44 315.904 389.12 473.1904 389.12 473.1904s0-82.7392 37.376-107.9296c63.3856 40.96 123.8016 45.7728 160.6656 21.4016 14.2336 31.4368 13.824 86.528 13.824 86.528a147.7632 147.7632 0 0 0 11.1616-110.08c-4.5056-14.7456 11.776-29.3888 9.216-48.2304z" fill="#472B29" p-id="1795"></path></svg>