<?xml version="1.0" standalone="no"?><!DOCTYPE svg PUBLIC "-//W3C//DTD SVG 1.1//EN" "http://www.w3.org/Graphics/SVG/1.1/DTD/svg11.dtd"><svg t="1711674107232" class="icon" viewBox="0 0 1024 1024" version="1.1" xmlns="http://www.w3.org/2000/svg" p-id="2783" xmlns:xlink="http://www.w3.org/1999/xlink" width="200" height="200"><path d="M972.8 0H204.8a51.2 51.2 0 0 0-51.2 51.2v102.4H51.2a51.2 51.2 0 0 0-51.2 51.2v768a51.2 51.2 0 0 0 51.2 51.2h768a51.2 51.2 0 0 0 51.2-51.2v-102.4h102.4a51.2 51.2 0 0 0 51.2-51.2V51.2a51.2 51.2 0 0 0-51.2-51.2z m-204.8 921.6H102.4V256h665.6z m153.6-153.6h-51.2V204.8a51.2 51.2 0 0 0-51.2-51.2H256V102.4h665.6z" p-id="2784" fill="#8a8a8a"></path><path d="M281.6 512h307.2a51.2 51.2 0 0 0 0-102.4h-307.2a51.2 51.2 0 0 0 0 102.4zM281.6 716.8h307.2a51.2 51.2 0 0 0 0-102.4h-307.2a51.2 51.2 0 0 0 0 102.4z" p-id="2785" fill="#8a8a8a"></path></svg>