<?xml version="1.0" standalone="no"?><!DOCTYPE svg PUBLIC "-//W3C//DTD SVG 1.1//EN" "http://www.w3.org/Graphics/SVG/1.1/DTD/svg11.dtd"><svg t="1711673342368" class="icon" viewBox="0 0 1024 1024" version="1.1" xmlns="http://www.w3.org/2000/svg" p-id="1607" xmlns:xlink="http://www.w3.org/1999/xlink" width="200" height="200"><path d="M870.4 102.4H153.6a153.6 153.6 0 0 0-153.6 153.6v512a153.6 153.6 0 0 0 153.6 153.6h716.8a153.6 153.6 0 0 0 153.6-153.6V256a153.6 153.6 0 0 0-153.6-153.6z m51.2 665.6a51.2 51.2 0 0 1-51.2 51.2H153.6a51.2 51.2 0 0 1-51.2-51.2V256a51.2 51.2 0 0 1 51.2-51.2h716.8a51.2 51.2 0 0 1 51.2 51.2z" p-id="1608" fill="#8a8a8a"></path><path d="M281.6 358.4a51.2 51.2 0 0 0-51.2 51.2v204.8a51.2 51.2 0 0 0 102.4 0V409.6a51.2 51.2 0 0 0-51.2-51.2zM512 358.4a51.2 51.2 0 0 0-51.2 51.2v204.8a51.2 51.2 0 0 0 102.4 0V409.6a51.2 51.2 0 0 0-51.2-51.2zM742.4 358.4a51.2 51.2 0 0 0-51.2 51.2v204.8a51.2 51.2 0 0 0 102.4 0V409.6a51.2 51.2 0 0 0-51.2-51.2z" p-id="1609" fill="#8a8a8a"></path></svg>