<?xml version="1.0" standalone="no"?><!DOCTYPE svg PUBLIC "-//W3C//DTD SVG 1.1//EN" "http://www.w3.org/Graphics/SVG/1.1/DTD/svg11.dtd"><svg t="1711673458207" class="icon" viewBox="0 0 1024 1024" version="1.1" xmlns="http://www.w3.org/2000/svg" p-id="2069" xmlns:xlink="http://www.w3.org/1999/xlink" width="200" height="200"><path d="M835.380917 529.718409l-107.964199-90.055445a268.119621 268.119621 0 0 0 58.331368-166.807245 271.189693 271.189693 0 0 0-97.730625-208.764896A273.748086 273.748086 0 0 0 245.927094 209.407564a270.678014 270.678014 0 0 0 51.167866 230.2554l-111.03427 92.613838A381.200606 381.200606 0 0 0 51.489201 819.328534a51.167867 51.167867 0 0 0 51.167866 51.167866h818.685866a51.167867 51.167867 0 0 0 51.167866-51.167866 383.758999 383.758999 0 0 0-137.129882-289.610125zM157.918363 768.160667A290.121804 290.121804 0 0 1 256.160667 608.516923l148.386813-125.872951a51.167867 51.167867 0 0 0 0-78.798515 167.830602 167.830602 0 0 1-58.843046-171.412353 169.877317 169.877317 0 0 1 133.548131-126.38463 171.924032 171.924032 0 0 1 142.758348 36.840863 167.830602 167.830602 0 0 1 0 260.95612 51.167867 51.167867 0 0 0 0 78.798515L767.839333 605.95853A295.750269 295.750269 0 0 1 866.081637 768.160667zM767.839333 921.664267H256.160667a51.167867 51.167867 0 0 0 0 102.335733h511.678666a51.167867 51.167867 0 0 0 0-102.335733z" p-id="2070" fill="#8a8a8a"></path></svg>
